<svg width="220" height="280" viewBox="0 0 220 280" fill="none" xmlns="http://www.w3.org/2000/svg">
<rect x="40" y="20" width="50" height="10" fill="#D5405E"/>
<rect x="40" y="30" width="40" height="10" fill="#D5405E"/>
<rect x="40" y="40" width="10" height="10" fill="#D5405E"/>
<rect x="20" y="40" width="10" height="10" fill="#D5405E"/>
<rect x="10" y="50" width="10" height="10" fill="#D5405E"/>
<rect x="10" y="60" width="10" height="10" fill="#D5405E"/>
<rect x="10" y="70" width="30" height="10" fill="#5E242A"/>
<rect y="80" width="40" height="10" fill="#5E242A"/>
<rect y="90" width="40" height="10" fill="#5E242A"/>
<rect x="20" y="100" width="10" height="10" fill="#5E242A"/>
<rect x="40" y="100" width="10" height="20" fill="#5E242A"/>
<rect x="130" y="40" width="10" height="60" fill="#5E242A"/>
<rect x="150" y="70" width="10" height="40" fill="#5E242A"/>
<rect x="160" y="90" width="10" height="20" fill="#5E242A"/>
<rect x="180" y="90" width="10" height="10" fill="#5E242A"/>
<rect x="140" y="50" width="10" height="70" fill="#5E242A"/>
<rect x="150" y="30" width="10" height="20" fill="#5E242A"/>
<rect x="160" y="30" width="10" height="20" fill="#5E242A"/>
<rect x="190" y="40" width="10" height="20" transform="rotate(90 190 40)" fill="#5E242A"/>
<rect x="150" y="30" width="10" height="10" transform="rotate(90 150 30)" fill="#5E242A"/>
<rect x="210" y="60" width="20" height="10" transform="rotate(90 210 60)" fill="#5E242A"/>
<rect x="220" y="70" width="10" height="10" transform="rotate(90 220 70)" fill="#5E242A"/>
<rect x="160" y="50" width="40" height="20" fill="#5E242A"/>
<rect x="170" y="70" width="30" height="20" fill="#5E242A"/>
<rect x="20" y="60" width="20" height="10" fill="#5E242A"/>
<rect x="30" y="50" width="10" height="10" fill="#5E242A"/>
<rect x="40" y="90" width="10" height="10" fill="#31120F"/>
<rect x="40" y="50" width="30" height="20" fill="#6D97B0"/>
<rect x="40" y="70" width="10" height="20" fill="#6D97B0"/>
<rect x="50" y="70" width="10" height="10" fill="#6D97B0"/>
<rect x="50" y="40" width="10" height="10" fill="#6D97B0"/>
<rect x="130" y="30" width="10" height="10" fill="#31120F"/>
<rect x="120" y="60" width="10" height="10" fill="#5E242A"/>
<rect x="120" y="70" width="10" height="30" fill="#D1B120"/>
<rect x="130" y="100" width="10" height="20" fill="#6A8DB2"/>
<rect x="60" y="90" width="20" height="10" fill="#D1B120"/>
<rect x="80" y="80" width="30" height="40" fill="#D1B120"/>
<rect x="90" y="120" width="20" height="10" fill="#D1B120"/>
<rect x="70" y="50" width="10" height="10" fill="#5E332D"/>
<rect x="70" y="60" width="10" height="10" fill="#5E332D"/>
<rect x="60" y="40" width="20" height="10" fill="#5E332D"/>
<rect x="80" y="30" width="50" height="10" fill="#3C2225"/>
<rect x="80" y="40" width="30" height="10" fill="#3C2225"/>
<rect x="120" y="60" width="20" height="10" transform="rotate(-90 120 60)" fill="#3C2225"/>
<rect x="110" y="70" width="30" height="10" transform="rotate(-90 110 70)" fill="#D2A683"/>
<rect x="80" y="70" width="20" height="30" transform="rotate(-90 80 70)" fill="#D2A683"/>
<rect x="80" y="80" width="10" height="30" transform="rotate(-90 80 80)" fill="#D2A683"/>
<rect x="60" y="80" width="10" height="20" transform="rotate(-90 60 80)" fill="#EABF95"/>
<rect x="50" y="90" width="10" height="30" transform="rotate(-90 50 90)" fill="#EABF95"/>
<rect x="70" y="110" width="10" height="10" transform="rotate(-90 70 110)" fill="#EABF95"/>
<rect x="70" y="120" width="10" height="10" transform="rotate(-90 70 120)" fill="#EABF95"/>
<rect x="60" y="170" width="10" height="40" transform="rotate(-90 60 170)" fill="#E59F2D"/>
<rect x="60" y="160" width="10" height="40" transform="rotate(-90 60 160)" fill="#E59F2D"/>
<rect x="80" y="180" width="10" height="20" transform="rotate(-90 80 180)" fill="#E59F2D"/>
<rect x="80" y="240" width="60" height="10" transform="rotate(-90 80 240)" fill="#F3D8C5"/>
<rect x="110" y="240" width="60" height="10" transform="rotate(-90 110 240)" fill="#F3D8C5"/>
<rect x="120" y="280" width="40" height="10" transform="rotate(-90 120 280)" fill="#969CBF"/>
<rect x="110" y="280" width="40" height="10" transform="rotate(-90 110 280)" fill="#E3E9F5"/>
<rect x="70" y="280" width="40" height="20" transform="rotate(-90 70 280)" fill="#E3E9F5"/>
<rect x="60" y="280" width="10" height="10" transform="rotate(-90 60 280)" fill="#E3E9F5"/>
<rect x="130" y="280" width="10" height="10" transform="rotate(-90 130 280)" fill="#969CBF"/>
<rect x="80" y="150" width="10" height="10" transform="rotate(-90 80 150)" fill="#E59F2D"/>
<rect x="60" y="150" width="30" height="10" transform="rotate(-90 60 150)" fill="#C64643"/>
<rect x="70" y="150" width="30" height="10" transform="rotate(-90 70 150)" fill="#C64643"/>
<rect x="110" y="150" width="30" height="10" transform="rotate(-90 110 150)" fill="#7B322B"/>
<rect x="120" y="150" width="10" height="10" transform="rotate(-90 120 150)" fill="#7B322B"/>
<rect x="120" y="140" width="20" height="10" transform="rotate(-90 120 140)" fill="#CC5541"/>
<rect x="120" y="140" width="20" height="10" transform="rotate(-90 120 140)" fill="#CC5541"/>
<rect x="120" y="120" width="20" height="10" transform="rotate(-90 120 120)" fill="#D6A483"/>
<rect x="130" y="150" width="20" height="10" transform="rotate(-90 130 150)" fill="#CC5541"/>
<rect x="130" y="150" width="20" height="10" transform="rotate(-90 130 150)" fill="#CC5541"/>
<rect x="110" y="120" width="50" height="10" transform="rotate(-90 110 120)" fill="#452705"/>
<rect x="80" y="140" width="20" height="10" transform="rotate(-90 80 140)" fill="#B45E22"/>
<rect x="90" y="150" width="20" height="10" transform="rotate(-90 90 150)" fill="#B45E22"/>
<rect x="100" y="180" width="50" height="10" transform="rotate(-90 100 180)" fill="#B45E22"/>
<rect x="110" y="180" width="30" height="10" transform="rotate(-90 110 180)" fill="#B45E22"/>
<rect x="120" y="170" width="20" height="10" transform="rotate(-90 120 170)" fill="#B45E22"/>
<rect x="50" y="130" width="40" height="10" transform="rotate(-90 50 130)" fill="#5E8CA8"/>
<rect x="60" y="120" width="20" height="10" transform="rotate(-90 60 120)" fill="#5E8CA8"/>
<rect x="140" y="40" width="10" height="10" fill="#31120F"/>
<rect x="150" y="50" width="10" height="20" fill="#31120F"/>
<rect x="160" y="70" width="10" height="20" fill="#31120F"/>
<rect x="170" y="90" width="10" height="20" fill="#31120F"/>
<rect x="30" y="100" width="10" height="20" fill="#31120F"/>
<rect y="60" width="10" height="10" fill="#D5405E"/>
<rect y="70" width="10" height="10" fill="#D5405E"/>
<rect x="60" y="10" width="50" height="10" fill="#D5405E"/>
<rect x="80" width="30" height="10" fill="#D5405E"/>
<rect x="170" y="10" width="10" height="10" fill="#921E29"/>
<rect x="170" y="10" width="10" height="10" fill="#921E29"/>
<rect x="90" y="20" width="20" height="10" fill="#BB2F42"/>
<rect x="120" width="20" height="30" fill="#BB2F42"/>
<rect x="140" y="10" width="20" height="20" fill="#BB2F42"/>
<rect x="160" y="10" width="10" height="20" fill="#BB2F42"/>
<rect x="190" y="30" width="10" height="20" fill="#BB2F42"/>
<rect x="200" y="40" width="10" height="20" fill="#BB2F42"/>
<rect x="210" y="60" width="10" height="10" fill="#BB2F42"/>
<rect x="170" y="20" width="10" height="20" fill="#BB2F42"/>
<rect x="180" y="20" width="10" height="10" fill="#921E29"/>
<rect x="180" y="30" width="10" height="10" fill="#921E29"/>
<rect x="20" y="50" width="10" height="10" fill="#921E29"/>
<rect x="30" y="30" width="10" height="20" fill="#921E29"/>
<rect x="110" width="10" height="30" fill="#921E29"/>
</svg>
