<svg width="400" height="630" viewBox="0 0 400 630" fill="none" xmlns="http://www.w3.org/2000/svg">
<rect x="210" y="50" width="170" height="10" fill="#12293B"/>
<rect x="320" y="60" width="70" height="10" fill="#12293B"/>
<rect x="230" y="40" width="140" height="10" fill="#12293B"/>
<rect x="250" y="30" width="110" height="10" fill="#12293B"/>
<rect x="280" y="20" width="60" height="10" fill="#12293B"/>
<rect x="380" y="70" width="10" height="10" fill="#12293B"/>
<rect x="170" y="10" width="10" height="10" fill="#4E5778"/>
<rect x="150" y="20" width="70" height="30" fill="#4E5778"/>
<rect x="140" y="20" width="10" height="30" fill="#4E5778"/>
<rect x="130" y="30" width="10" height="10" fill="#4E5778"/>
<rect x="120" y="40" width="10" height="10" fill="#4E5778"/>
<rect x="110" y="40" width="10" height="10" fill="#4E5778"/>
<rect x="120" y="30" width="10" height="10" fill="#4E5778"/>
<rect x="100" y="50" width="10" height="10" fill="#4E5778"/>
<rect x="90" y="60" width="10" height="10" fill="#4E5778"/>
<rect x="90" y="70" width="10" height="10" fill="#4E5778"/>
<rect x="80" y="70" width="10" height="10" fill="#4E5778"/>
<rect x="100" y="60" width="10" height="10" fill="#4E5778"/>
<rect x="110" y="60" width="10" height="10" fill="#4E5778"/>
<rect x="90" y="60" width="10" height="10" fill="#4E5778"/>
<rect x="190" y="10" width="10" height="10" fill="#4E5778"/>
<rect x="220" y="10" width="60" height="20" fill="#4E5778"/>
<rect x="140" y="60" width="10" height="10" fill="#4E5778"/>
<rect x="220" y="30" width="20" height="10" fill="#4E5778"/>
<rect x="220" y="30" width="20" height="10" fill="#4E5778"/>
<rect x="200" y="50" width="10" height="10" fill="#4E5778"/>
<rect x="200" y="50" width="10" height="10" fill="#4E5778"/>
<rect x="280" y="10" width="10" height="10" fill="#4E5778"/>
<rect x="240" y="30" width="10" height="10" fill="#4E5778"/>
<rect x="220" y="40" width="10" height="10" fill="#4E5778"/>
<rect x="160" y="60" width="10" height="10" fill="#031920"/>
<rect x="160" y="60" width="160" height="10" fill="#031920"/>
<rect x="140" y="70" width="104" height="10" fill="#031920"/>
<rect x="150" y="80" width="90" height="10" fill="#031920"/>
<rect x="220" y="90" width="10" height="10" fill="#031920"/>
<rect x="210" y="90" width="10" height="10" fill="#031920"/>
<rect x="100" y="70" width="30" height="10" fill="#031920"/>
<rect x="250" y="70" width="20" height="10" fill="#031920"/>
<rect x="250" y="80" width="20" height="10" fill="#031920"/>
<rect x="290" y="70" width="90" height="20" fill="#031920"/>
<rect x="230" y="90" width="10" height="10" fill="#031920"/>
<rect x="240" width="10" height="10" fill="#B4BABA"/>
<rect x="130" y="70" width="10" height="10" fill="#4C4F40"/>
<rect x="130" y="120" width="20" height="10" fill="#4C4F40"/>
<rect x="290" y="200" width="10" height="10" fill="#4C4F40"/>
<rect x="290" y="200" width="10" height="10" fill="#4C4F40"/>
<rect x="290" y="220" width="10" height="10" fill="#4C4F40"/>
<rect x="300" y="210" width="30" height="10" fill="#4C4F40"/>
<rect x="130" y="230" width="110" height="10" fill="#4C4F40"/>
<rect x="150" y="240" width="60" height="10" fill="#4C4F40"/>
<rect x="170" y="250" width="70" height="10" fill="#4C4F40"/>
<rect x="250" y="250" width="50" height="40" fill="#4C4F40"/>
<rect x="260" y="290" width="100" height="20" fill="#4C4F40"/>
<rect x="300" y="270" width="50" height="20" fill="#4C4F40"/>
<rect x="210" y="240" width="10" height="10" fill="#4C4F40"/>
<rect x="250" y="230" width="50" height="10" fill="#4C4F40"/>
<rect x="300" y="240" width="40" height="10" fill="#4C4F40"/>
<rect x="300" y="260" width="30" height="10" fill="#4C4F40"/>
<rect x="340" y="260" width="10" height="10" fill="#4C4F40"/>
<rect x="270" y="310" width="10" height="10" fill="#4C4F40"/>
<rect x="320" y="330" width="50" height="40" fill="#4C4F40"/>
<rect x="300" y="330" width="20" height="20" fill="#4C4F40"/>
<rect x="350" y="280" width="10" height="10" fill="#4C4F40"/>
<rect x="290" y="330" width="10" height="10" fill="#4C4F40"/>
<rect x="310" y="350" width="10" height="10" fill="#4C4F40"/>
<rect x="340" y="370" width="40" height="10" fill="#4C4F40"/>
<rect x="360" y="380" width="20" height="90" fill="#4C4F40"/>
<rect x="360" y="470" width="20" height="40" fill="#4C4F40"/>
<rect x="340" y="510" width="30" height="20" fill="#4C4F40"/>
<rect x="330" y="530" width="40" height="10" fill="#4C4F40"/>
<rect x="320" y="540" width="40" height="20" fill="#4C4F40"/>
<rect x="310" y="560" width="40" height="10" fill="#4C4F40"/>
<rect x="290" y="570" width="60" height="10" fill="#4C4F40"/>
<rect x="280" y="580" width="60" height="10" fill="#4C4F40"/>
<rect x="270" y="590" width="60" height="10" fill="#4C4F40"/>
<rect x="240" y="600" width="80" height="10" fill="#4C4F40"/>
<rect x="220" y="610" width="70" height="10" fill="#4C4F40"/>
<rect x="90" y="610" width="220" height="10" fill="#4C4F40"/>
<rect x="110" y="600" width="60" height="10" fill="#4C4F40"/>
<rect x="110" y="600" width="60" height="10" fill="#4C4F40"/>
<rect x="120" y="590" width="30" height="10" fill="#4C4F40"/>
<rect x="120" y="580" width="10" height="10" fill="#4C4F40"/>
<rect x="210" y="620" width="60" height="10" fill="#4C4F40"/>
<rect x="260" y="590" width="10" height="10" fill="#4C4F40"/>
<rect x="270" y="580" width="10" height="10" fill="#4C4F40"/>
<rect x="300" y="560" width="10" height="10" fill="#4C4F40"/>
<rect x="310" y="550" width="10" height="10" fill="#4C4F40"/>
<rect x="350" y="480" width="10" height="30" fill="#4C4F40"/>
<rect x="280" y="310" width="90" height="20" fill="#4C4F40"/>
<rect x="330" y="250" width="20" height="10" fill="#4C4F40"/>
<rect x="200" y="190" width="10" height="10" fill="#324959"/>
<rect x="200" y="190" width="10" height="10" fill="#324959"/>
<rect x="210" y="190" width="10" height="10" fill="#324959"/>
<rect x="220" y="190" width="10" height="10" fill="#0E151B"/>
<rect x="190" y="190" width="10" height="10" fill="#324959"/>
<rect x="90" y="190" width="10" height="10" fill="#4C4F40"/>
<rect x="80" y="210" width="40" height="10" fill="#4C4F40"/>
<rect x="120" y="200" width="120" height="30" fill="#4C4F40"/>
<rect x="50" y="250" width="80" height="30" fill="#848478"/>
<rect x="40" y="280" width="40" height="30" fill="#848478"/>
<rect x="80" y="280" width="30" height="10" fill="#848478"/>
<rect x="130" y="240" width="20" height="30" fill="#848478"/>
<rect x="150" y="250" width="20" height="20" fill="#848478"/>
<rect x="110" y="240" width="20" height="10" fill="#848478"/>
<rect x="120" y="230" width="10" height="10" fill="#848478"/>
<rect x="70" y="230" width="40" height="10" fill="#848478"/>
<rect x="170" y="120" width="10" height="10" fill="#4E6530"/>
<rect x="180" y="120" width="10" height="10" fill="#4E6530"/>
<rect x="190" y="120" width="10" height="30" fill="#1A452D"/>
<rect x="180" y="130" width="10" height="10" fill="#1A452D"/>
<rect x="80" y="200" width="40" height="10" fill="#07070F"/>
<rect x="110" y="230" width="10" height="10" fill="#07070F"/>
<rect x="290" y="210" width="10" height="10" fill="#07070F"/>
<rect x="240" y="230" width="10" height="10" fill="#0B1315"/>
<rect x="240" y="250" width="10" height="10" fill="#0B1315"/>
<rect x="240" y="270" width="10" height="10" fill="#0B1315"/>
<rect x="240" y="280" width="10" height="10" fill="#0B1315"/>
<rect x="250" y="290" width="10" height="10" fill="#0B1315"/>
<rect x="250" y="300" width="10" height="10" fill="#0B1315"/>
<rect x="260" y="310" width="10" height="10" fill="#0B1315"/>
<rect x="270" y="320" width="10" height="10" fill="#0B1315"/>
<rect x="280" y="330" width="10" height="10" fill="#0B1315"/>
<rect x="290" y="340" width="10" height="10" fill="#0B1315"/>
<rect x="300" y="350" width="10" height="10" fill="#0B1315"/>
<rect x="310" y="360" width="10" height="10" fill="#0B1315"/>
<rect x="320" y="370" width="10" height="10" fill="#0B1315"/>
<rect x="330" y="370" width="10" height="10" fill="#0B1315"/>
<rect x="340" y="380" width="10" height="10" fill="#0B1315"/>
<rect x="350" y="380" width="10" height="10" fill="#0B1315"/>
<rect x="220" y="280" width="20" height="10" fill="#0B1315"/>
<rect x="210" y="260" width="10" height="20" fill="#0B1315"/>
<rect x="220" y="240" width="30" height="10" fill="#19525D"/>
<rect x="230" y="260" width="20" height="10" fill="#19525D"/>
<rect x="300" y="230" width="40" height="10" fill="#07070F"/>
<rect x="300" y="220" width="70" height="10" fill="#07070F"/>
<rect x="340" y="190" width="30" height="10" fill="#07070F"/>
<rect x="370" y="210" width="20" height="10" fill="#07070F"/>
<rect x="300" y="200" width="40" height="10" fill="#07070F"/>
<rect x="340" y="240" width="30" height="10" fill="#07070F"/>
<rect x="330" y="260" width="10" height="10" fill="#07070F"/>
<rect x="250" y="250" width="50" height="40" fill="#4C4F40"/>
<rect x="220" y="270" width="20" height="10" fill="#4C4F40"/>
<rect x="220" y="260" width="10" height="10" fill="#4C4F40"/>
<rect x="260" y="290" width="100" height="20" fill="#4C4F40"/>
<rect x="300" y="270" width="50" height="20" fill="#4C4F40"/>
<rect x="300" y="260" width="30" height="10" fill="#4C4F40"/>
<rect x="340" y="260" width="10" height="10" fill="#4C4F40"/>
<rect x="270" y="310" width="10" height="10" fill="#4C4F40"/>
<rect x="320" y="330" width="60" height="40" fill="#4C4F40"/>
<rect x="30" y="330" width="20" height="40" fill="#848478"/>
<rect x="300" y="330" width="20" height="20" fill="#4C4F40"/>
<rect x="350" y="280" width="10" height="10" fill="#4C4F40"/>
<rect x="290" y="330" width="10" height="10" fill="#4C4F40"/>
<rect x="310" y="350" width="10" height="10" fill="#4C4F40"/>
<rect x="340" y="370" width="40" height="10" fill="#4C4F40"/>
<rect x="390" y="360" width="110" height="10" transform="rotate(90 390 360)" fill="#4C4F40"/>
<rect x="360" y="380" width="20" height="90" fill="#4C4F40"/>
<rect x="360" y="470" width="20" height="40" fill="#4C4F40"/>
<rect x="340" y="510" width="30" height="20" fill="#4C4F40"/>
<rect x="330" y="530" width="40" height="10" fill="#4C4F40"/>
<rect x="320" y="540" width="40" height="20" fill="#4C4F40"/>
<rect x="310" y="560" width="40" height="10" fill="#4C4F40"/>
<rect x="290" y="570" width="60" height="10" fill="#4C4F40"/>
<rect x="280" y="580" width="60" height="10" fill="#4C4F40"/>
<rect x="270" y="590" width="60" height="10" fill="#4C4F40"/>
<rect x="240" y="600" width="80" height="10" fill="#4C4F40"/>
<rect x="220" y="610" width="70" height="10" fill="#4C4F40"/>
<rect x="90" y="610" width="220" height="10" fill="#4C4F40"/>
<rect x="210" y="620" width="60" height="10" fill="#4C4F40"/>
<rect x="100" y="620" width="200" height="10" fill="#4C4F40"/>
<rect x="260" y="590" width="10" height="10" fill="#4C4F40"/>
<rect x="270" y="580" width="10" height="10" fill="#4C4F40"/>
<rect x="300" y="560" width="10" height="10" fill="#4C4F40"/>
<rect x="310" y="550" width="10" height="10" fill="#4C4F40"/>
<rect x="350" y="480" width="10" height="30" fill="#4C4F40"/>
<rect width="20" height="100" transform="matrix(-1 0 0 1 40 370)" fill="#848478"/>
<rect width="20" height="40" transform="matrix(-1 0 0 1 40 470)" fill="#848478"/>
<rect width="30" height="20" transform="matrix(-1 0 0 1 60 510)" fill="#848478"/>
<rect width="40" height="10" transform="matrix(-1 0 0 1 70 530)" fill="#848478"/>
<rect width="40" height="20" transform="matrix(-1 0 0 1 80 540)" fill="#848478"/>
<rect width="40" height="10" transform="matrix(-1 0 0 1 90 560)" fill="#848478"/>
<rect width="60" height="10" transform="matrix(-1 0 0 1 110 570)" fill="#848478"/>
<rect width="60" height="10" transform="matrix(-1 0 0 1 120 580)" fill="#848478"/>
<rect width="50" height="10" transform="matrix(-1 0 0 1 120 590)" fill="#848478"/>
<rect width="140" height="20" transform="matrix(-1 0 0 1 240 370)" fill="#EADBB2"/>
<rect width="10" height="20" transform="matrix(-1 0 0 1 250 460)" fill="#827259"/>
<rect width="10" height="20" transform="matrix(-1 0 0 1 240 490)" fill="#827259"/>
<rect width="10" height="10" transform="matrix(-1 0 0 1 230 520)" fill="#827259"/>
<rect width="20" height="10" transform="matrix(-1 0 0 1 340 380)" fill="#827259"/>
<rect width="10" height="10" transform="matrix(-1 0 0 1 220 540)" fill="#827259"/>
<rect width="10" height="10" transform="matrix(-1 0 0 1 330 530)" fill="#827259"/>
<rect width="10" height="10" transform="matrix(-1 0 0 1 130 580)" fill="#848478"/>
<rect width="10" height="10" transform="matrix(-1 0 0 1 100 560)" fill="#848478"/>
<rect width="10" height="10" transform="matrix(-1 0 0 1 90 550)" fill="#848478"/>
<rect width="10" height="30" transform="matrix(-1 0 0 1 50 480)" fill="#848478"/>
<rect width="20" height="10" transform="matrix(-1 0 0 1 70 330)" fill="#848478"/>
<rect width="20" height="30" transform="matrix(-1 0 0 1 290 550)" fill="#827259"/>
<rect width="10" height="20" transform="matrix(-1 0 0 1 300 550)" fill="#827259"/>
<rect width="10" height="10" transform="matrix(-1 0 0 1 310 550)" fill="#827259"/>
<rect width="10" height="10" transform="matrix(-1 0 0 1 180 570)" fill="#827259"/>
<rect width="10" height="10" transform="matrix(-1 0 0 1 180 600)" fill="#827259"/>
<rect width="10" height="10" transform="matrix(-1 0 0 1 160 590)" fill="#827259"/>
<rect width="10" height="10" transform="matrix(-1 0 0 1 150 580)" fill="#827259"/>
<rect width="10" height="10" transform="matrix(-1 0 0 1 160 580)" fill="#827259"/>
<rect width="10" height="10" transform="matrix(-1 0 0 1 140 580)" fill="#827259"/>
<rect width="10" height="10" transform="matrix(-1 0 0 1 200 560)" fill="#827259"/>
<rect width="20" height="10" transform="matrix(-1 0 0 1 260 590)" fill="#827259"/>
<rect width="20" height="20" transform="matrix(-1 0 0 1 180 580)" fill="#827259"/>
<rect width="20" height="40" transform="matrix(-1 0 0 1 200 570)" fill="#827259"/>
<rect width="20" height="40" transform="matrix(0 -1 -1 0 240 610)" fill="#827259"/>
<rect width="10" height="30" transform="matrix(-1 0 0 1 50 370)" fill="#848478"/>
<rect width="60" height="10" transform="matrix(0 1 1 0 240 400)" fill="#EADBB2"/>
<rect width="200" height="80" transform="matrix(-1 0 0 1 240 400)" fill="#EADBB2"/>
<rect width="10" height="10" transform="matrix(-1 0 0 1 90 300)" fill="#848478"/>
<rect width="200" height="10" transform="matrix(-1 0 0 1 250 390)" fill="#EADBB2"/>
<rect width="110" height="90" transform="matrix(-1 0 0 1 360 390)" fill="#827259"/>
<rect width="70" height="20" transform="matrix(-1 0 0 1 320 370)" fill="#827259"/>
<rect width="10" height="10" transform="matrix(-1 0 0 1 200 290)" fill="#9F9981"/>
<rect width="10" height="10" transform="matrix(-1 0 0 1 190 280)" fill="#9F9981"/>
<rect width="10" height="10" transform="matrix(-1 0 0 1 180 280)" fill="#9F9981"/>
<rect width="10" height="10" transform="matrix(-1 0 0 1 180 290)" fill="#9F9981"/>
<rect width="10" height="10" transform="matrix(-1 0 0 1 190 290)" fill="#9F9981"/>
<rect width="10" height="10" transform="matrix(-1 0 0 1 170 290)" fill="#9F9981"/>
<rect width="10" height="10" transform="matrix(-1 0 0 1 140 310)" fill="#9F9981"/>
<rect width="10" height="10" transform="matrix(-1 0 0 1 130 300)" fill="#9F9981"/>
<rect width="10" height="10" transform="matrix(-1 0 0 1 120 300)" fill="#9F9981"/>
<rect width="10" height="10" transform="matrix(-1 0 0 1 120 310)" fill="#9F9981"/>
<rect width="10" height="10" transform="matrix(-1 0 0 1 130 310)" fill="#9F9981"/>
<rect width="10" height="10" transform="matrix(-1 0 0 1 110 310)" fill="#9F9981"/>
<rect width="10" height="10" transform="matrix(-1 0 0 1 160 360)" fill="#9F9981"/>
<rect width="10" height="10" transform="matrix(-1 0 0 1 150 350)" fill="#9F9981"/>
<rect width="10" height="10" transform="matrix(-1 0 0 1 140 350)" fill="#9F9981"/>
<rect width="10" height="10" transform="matrix(-1 0 0 1 140 360)" fill="#9F9981"/>
<rect width="10" height="10" transform="matrix(-1 0 0 1 150 360)" fill="#9F9981"/>
<rect width="10" height="10" transform="matrix(-1 0 0 1 130 360)" fill="#9F9981"/>
<rect width="10" height="10" transform="matrix(-1 0 0 1 100 380)" fill="#9F9981"/>
<rect width="10" height="10" transform="matrix(-1 0 0 1 90 370)" fill="#9F9981"/>
<rect width="10" height="10" transform="matrix(-1 0 0 1 80 370)" fill="#9F9981"/>
<rect width="10" height="10" transform="matrix(-1 0 0 1 80 380)" fill="#9F9981"/>
<rect width="10" height="10" transform="matrix(-1 0 0 1 90 380)" fill="#9F9981"/>
<rect width="10" height="10" transform="matrix(-1 0 0 1 70 380)" fill="#9F9981"/>
<rect width="10" height="10" transform="matrix(-1 0 0 1 240 350)" fill="#9F9981"/>
<rect width="10" height="10" transform="matrix(-1 0 0 1 230 340)" fill="#9F9981"/>
<rect width="10" height="10" transform="matrix(-1 0 0 1 220 340)" fill="#9F9981"/>
<rect width="10" height="10" transform="matrix(-1 0 0 1 220 350)" fill="#9F9981"/>
<rect width="10" height="10" transform="matrix(-1 0 0 1 230 350)" fill="#9F9981"/>
<rect width="10" height="10" transform="matrix(-1 0 0 1 210 350)" fill="#9F9981"/>
<rect width="10" height="10" transform="matrix(-1 0 0 1 300 350)" fill="#525041"/>
<rect width="10" height="10" transform="matrix(-1 0 0 1 290 340)" fill="#525041"/>
<rect width="10" height="10" transform="matrix(-1 0 0 1 280 340)" fill="#525041"/>
<rect width="10" height="10" transform="matrix(-1 0 0 1 280 350)" fill="#525041"/>
<rect width="10" height="10" transform="matrix(-1 0 0 1 290 350)" fill="#525041"/>
<rect width="10" height="10" transform="matrix(-1 0 0 1 270 350)" fill="#525041"/>
<rect width="10" height="10" transform="matrix(-1 0 0 1 250 290)" fill="#525041"/>
<rect width="10" height="10" transform="matrix(-1 0 0 1 240 290)" fill="#525041"/>
<rect width="110" height="30" transform="matrix(-1 0 0 1 350 480)" fill="#827259"/>
<rect width="110" height="20" transform="matrix(-1 0 0 1 340 510)" fill="#827259"/>
<rect width="100" height="20" transform="matrix(-1 0 0 1 320 530)" fill="#827259"/>
<rect width="70" height="40" transform="matrix(-1 0 0 1 270 550)" fill="#827259"/>
<rect width="80" height="10" transform="matrix(-1 0 0 1 240 360)" fill="#EADBB2"/>
<rect width="50" height="60" transform="matrix(-1 0 0 1 200 300)" fill="#EADBB2"/>
<rect width="20" height="20" transform="matrix(-1 0 0 1 140 280)" fill="#EADBB2"/>
<rect width="10" height="10" transform="matrix(-1 0 0 1 140 300)" fill="#EADBB2"/>
<rect width="20" height="10" transform="matrix(-1 0 0 1 110 300)" fill="#EADBB2"/>
<rect width="20" height="10" transform="matrix(-1 0 0 1 120 290)" fill="#EADBB2"/>
<rect width="20" height="10" transform="matrix(-1 0 0 1 100 310)" fill="#EADBB2"/>
<rect width="10" height="40" transform="matrix(-1 0 0 1 70 340)" fill="#EADBB2"/>
<rect width="10" height="10" transform="matrix(-1 0 0 1 130 350)" fill="#EADBB2"/>
<rect width="10" height="10" transform="matrix(-1 0 0 1 100 370)" fill="#EADBB2"/>
<rect width="10" height="10" transform="matrix(-1 0 0 1 200 280)" fill="#EADBB2"/>
<rect width="10" height="30" transform="matrix(-1 0 0 1 60 360)" fill="#EADBB2"/>
<rect width="10" height="20" transform="matrix(-1 0 0 1 70 510)" fill="#EADBB2"/>
<rect width="110" height="20" transform="matrix(-1 0 0 1 200 540)" fill="#EADBB2"/>
<rect width="60" height="20" transform="matrix(-1 0 0 1 170 560)" fill="#EADBB2"/>
<rect width="10" height="10" transform="matrix(-1 0 0 1 110 560)" fill="#EADBB2"/>
<rect width="10" height="10" transform="matrix(-1 0 0 1 90 540)" fill="#EADBB2"/>
<rect width="20" height="10" transform="matrix(-1 0 0 1 190 560)" fill="#EADBB2"/>
<rect width="10" height="10" transform="matrix(-1 0 0 1 210 540)" fill="#EADBB2"/>
<rect width="50" height="50" transform="matrix(-1 0 0 1 120 320)" fill="#EADBB2"/>
<rect width="30" height="30" transform="matrix(-1 0 0 1 150 320)" fill="#EADBB2"/>
<rect width="10" height="50" transform="matrix(-1 0 0 1 150 270)" fill="#EADBB2"/>
<rect width="10" height="30" transform="matrix(-1 0 0 1 160 270)" fill="#EADBB2"/>
<rect width="10" height="20" transform="matrix(-1 0 0 1 170 270)" fill="#EADBB2"/>
<rect width="20" height="10" transform="matrix(-1 0 0 1 190 270)" fill="#EADBB2"/>
<rect width="20" height="40" transform="matrix(-1 0 0 1 220 300)" fill="#EADBB2"/>
<rect width="10" height="20" transform="matrix(-1 0 0 1 230 320)" fill="#EADBB2"/>
<rect width="10" height="10" transform="matrix(-1 0 0 1 210 340)" fill="#EADBB2"/>
<rect width="10" height="10" transform="matrix(-1 0 0 1 210 290)" fill="#EADBB2"/>
<rect width="10" height="10" transform="matrix(-1 0 0 1 230 510)" fill="#EADBB2"/>
<rect width="10" height="10" transform="matrix(-1 0 0 1 240 480)" fill="#EADBB2"/>
<rect width="30" height="10" transform="matrix(-1 0 0 1 110 600)" fill="#848478"/>
<rect width="10" height="20" transform="matrix(-1 0 0 1 250 370)" fill="#827259"/>
<rect width="20" height="20" transform="matrix(-1 0 0 1 260 350)" fill="#827259"/>
<rect width="50" height="10" transform="matrix(-1 0 0 1 310 360)" fill="#827259"/>
<rect width="40" height="10" transform="matrix(-1 0 0 1 270 340)" fill="#827259"/>
<rect width="50" height="10" transform="matrix(-1 0 0 1 280 330)" fill="#827259"/>
<rect width="40" height="10" transform="matrix(-1 0 0 1 270 320)" fill="#827259"/>
<rect width="40" height="10" transform="matrix(-1 0 0 1 260 310)" fill="#827259"/>
<rect width="30" height="10" transform="matrix(-1 0 0 1 250 300)" fill="#827259"/>
<rect width="20" height="10" transform="matrix(-1 0 0 1 230 290)" fill="#827259"/>
<rect width="20" height="10" transform="matrix(-1 0 0 1 220 280)" fill="#827259"/>
<rect width="20" height="10" transform="matrix(-1 0 0 1 210 270)" fill="#827259"/>
<rect width="30" height="10" transform="matrix(-1 0 0 1 210 260)" fill="#827259"/>
<rect width="180" height="30" transform="matrix(-1 0 0 1 230 480)" fill="#EADBB2"/>
<rect width="150" height="30" transform="matrix(-1 0 0 1 220 510)" fill="#EADBB2"/>
<rect width="10" height="10" transform="matrix(-1 0 0 1 100 560)" fill="#848478"/>
<rect width="10" height="10" transform="matrix(-1 0 0 1 90 550)" fill="#848478"/>
<rect width="10" height="20" transform="matrix(-1 0 0 1 60 340)" fill="#848478"/>
<rect width="10" height="10" transform="matrix(-1 0 0 1 80 310)" fill="#848478"/>
<rect width="20" height="10" transform="matrix(-1 0 0 1 100 290)" fill="#848478"/>
<rect width="10" height="10" transform="matrix(-1 0 0 1 120 280)" fill="#848478"/>
<rect width="10" height="10" transform="matrix(-1 0 0 1 140 270)" fill="#848478"/>
<rect width="10" height="10" transform="matrix(-1 0 0 1 180 260)" fill="#848478"/>
<rect x="30" y="310" width="40" height="20" fill="#848478"/>
<rect x="20" y="330" width="10" height="40" fill="#848478"/>
<rect x="10" y="360" width="10" height="110" fill="#848478"/>
<rect y="390" width="10" height="60" fill="#848478"/>
<rect y="390" width="10" height="60" fill="#848478"/>
<rect x="240" y="270" width="10" height="10" fill="#0B1315"/>
<rect x="240" y="280" width="10" height="10" fill="#0B1315"/>
<rect x="250" y="290" width="10" height="10" fill="#0B1315"/>
<rect x="250" y="300" width="10" height="10" fill="#0B1315"/>
<rect x="260" y="310" width="10" height="10" fill="#0B1315"/>
<rect x="270" y="320" width="10" height="10" fill="#0B1315"/>
<rect x="280" y="330" width="10" height="10" fill="#0B1315"/>
<rect x="290" y="340" width="10" height="10" fill="#0B1315"/>
<rect x="300" y="350" width="10" height="10" fill="#0B1315"/>
<rect x="310" y="360" width="10" height="10" fill="#0B1315"/>
<rect x="320" y="370" width="10" height="10" fill="#0B1315"/>
<rect x="330" y="370" width="10" height="10" fill="#0B1315"/>
<rect x="340" y="380" width="10" height="10" fill="#0B1315"/>
<rect x="350" y="380" width="10" height="10" fill="#0B1315"/>
<rect x="220" y="280" width="20" height="10" fill="#0B1315"/>
<rect x="210" y="260" width="10" height="20" fill="#0B1315"/>
<rect x="230" y="260" width="20" height="10" fill="#19525D"/>
<rect x="330" y="260" width="10" height="10" fill="#07070F"/>
<rect x="320" y="250" width="10" height="10" fill="#07070F"/>
<rect x="310" y="250" width="10" height="10" fill="#07070F"/>
<rect x="300" y="250" width="10" height="10" fill="#07070F"/>
<rect x="290" y="240" width="10" height="10" fill="#07070F"/>
<rect x="280" y="240" width="10" height="10" fill="#07070F"/>
<rect x="270" y="240" width="10" height="10" fill="#07070F"/>
<rect x="260" y="240" width="10" height="10" fill="#07070F"/>
<rect x="250" y="240" width="10" height="10" fill="#07070F"/>
<rect x="40" y="250" width="10" height="10" fill="#07070F"/>
<rect x="40" y="250" width="10" height="10" fill="#07070F"/>
<rect x="50" y="240" width="60" height="10" fill="#07070F"/>
<rect x="30" y="220" width="90" height="10" fill="#07070F"/>
<rect x="40" y="190" width="40" height="10" fill="#07070F"/>
<rect x="200" y="120" width="10" height="20" fill="#1A452D"/>
<rect x="210" y="120" width="30" height="10" fill="#1A452D"/>
<rect x="230" y="130" width="10" height="10" fill="#1A452D"/>
<rect x="250" y="120" width="10" height="20" fill="#1A452D"/>
<rect x="120" y="140" width="10" height="30" fill="#4C4F40"/>
<rect x="110" y="150" width="10" height="20" fill="#4C4F40"/>
<rect x="100" y="170" width="30" height="30" fill="#4C4F40"/>
<rect x="230" y="190" width="10" height="10" fill="#4C4F40"/>
<rect x="200" y="140" width="20" height="10" fill="#4C4F40"/>
<rect x="250" y="140" width="10" height="90" fill="#4C4F40"/>
<rect x="270" y="80" width="10" height="90" fill="#4C4F40"/>
<rect x="280" y="140" width="10" height="30" fill="#4C4F40"/>
<rect x="290" y="150" width="10" height="50" fill="#4C4F40"/>
<rect x="260" y="200" width="30" height="30" fill="#4C4F40"/>
<rect x="300" y="160" width="10" height="40" fill="#4C4F40"/>
<rect x="310" y="170" width="10" height="30" fill="#4C4F40"/>
<rect x="260" y="90" width="10" height="80" fill="#4C4F40"/>
<rect x="280" y="90" width="10" height="30" fill="#4C4F40"/>
<rect x="140" y="180" width="10" height="10" fill="#4C4F40"/>
<rect x="270" y="180" width="10" height="10" fill="#4C4F40"/>
<rect x="130" y="170" width="20" height="10" fill="#4C4F40"/>
<rect x="130" y="180" width="10" height="10" fill="#4C4F40"/>
<rect x="150" y="170" width="10" height="10" fill="#4C4F40"/>
<rect x="150" y="180" width="10" height="10" fill="#4C4F40"/>
<rect x="130" y="190" width="30" height="10" fill="#4C4F40"/>
<rect x="260" y="180" width="10" height="10" fill="#4C4F40"/>
<rect x="280" y="180" width="10" height="10" fill="#4C4F40"/>
<rect x="260" y="170" width="30" height="10" fill="#4C4F40"/>
<rect x="260" y="190" width="30" height="10" fill="#4C4F40"/>
<rect x="130" y="130" width="30" height="40" fill="#4C4F40"/>
<rect x="130" y="130" width="30" height="40" fill="#4C4F40"/>
<rect x="160" y="140" width="30" height="60" fill="#4C4F40"/>
<rect x="190" y="150" width="50" height="40" fill="#4C4F40"/>
<rect x="120" y="90" width="10" height="30" fill="#4C4F40"/>
<rect x="150" y="100" width="10" height="20" fill="#4C4F40"/>
<rect x="160" y="130" width="20" height="10" fill="#1B2524"/>
<rect x="210" y="130" width="20" height="10" fill="#1B2524"/>
<rect x="220" y="140" width="20" height="10" fill="#1B2524"/>
<rect x="130" y="80" width="20" height="40" fill="#4C4F40"/>
<rect x="170" y="10" width="10" height="10" fill="#212B44"/>
<rect x="160" y="20" width="10" height="10" fill="#212B44"/>
<rect x="150" y="30" width="10" height="10" fill="#212B44"/>
<rect x="140" y="40" width="10" height="10" fill="#212B44"/>
<rect x="240" y="220" width="10" height="10" fill="#7D8F99"/>
<rect x="240" y="70" width="10" height="150" fill="#8E8E9A"/>
<rect x="150" y="60" width="10" height="10" fill="#4E5778"/>
<rect x="210" y="10" width="10" height="10" fill="#4E5778"/>
<rect x="130" y="60" width="10" height="10" fill="#4E5778"/>
<rect x="120" y="60" width="10" height="10" fill="#4E5778"/>
<rect x="200" y="10" width="10" height="10" fill="#4E5778"/>
<rect x="130" y="40" width="10" height="10" fill="#4E5778"/>
<rect x="130" y="50" width="70" height="10" fill="#4E5778"/>
<rect x="110" y="50" width="10" height="10" fill="#4E5778"/>
<rect x="120" y="50" width="10" height="10" fill="#4E5778"/>
<rect x="180" y="10" width="10" height="10" fill="#4E5778"/>
<rect x="130" y="50" width="10" height="10" fill="#212B44"/>
<rect x="240" y="10" width="10" height="10" fill="#212B44"/>
<rect x="300" y="20" width="10" height="10" fill="#212B44"/>
<rect x="310" y="30" width="10" height="10" fill="#212B44"/>
<rect x="320" y="40" width="10" height="10" fill="#212B44"/>
<rect x="320" y="50" width="10" height="10" fill="#212B44"/>
<rect x="320" y="60" width="10" height="10" fill="#212B44"/>
<rect x="250" y="20" width="10" height="10" fill="#212B44"/>
<rect x="250" y="30" width="10" height="10" fill="#212B44"/>
<rect x="250" y="40" width="10" height="10" fill="#212B44"/>
<rect x="250" y="50" width="10" height="10" fill="#212B44"/>
<rect x="390" y="390" width="10" height="60" fill="#4C4F40"/>
</svg>
