<svg width="1280" height="120" viewBox="0 0 1280 120" fill="none" xmlns="http://www.w3.org/2000/svg">
<rect width="1280" height="120" fill="#363F3C"/>
<rect x="330" y="60" width="10" height="10" fill="url(#paint0_linear_18_170)" fill-opacity="0.4"/>
<rect x="340" y="50" width="10" height="10" fill="url(#paint1_linear_18_170)" fill-opacity="0.4"/>
<rect x="340" y="70" width="10" height="10" fill="url(#paint2_linear_18_170)" fill-opacity="0.4"/>
<rect x="350" y="60" width="10" height="10" fill="url(#paint3_linear_18_170)" fill-opacity="0.4"/>
<rect x="360" y="70" width="10" height="10" fill="url(#paint4_linear_18_170)" fill-opacity="0.4"/>
<rect x="370" y="60" width="10" height="10" fill="url(#paint5_linear_18_170)" fill-opacity="0.4"/>
<rect x="380" y="50" width="10" height="10" fill="url(#paint6_linear_18_170)" fill-opacity="0.4"/>
<rect x="640" y="70" width="110" height="20" fill="#102224"/>
<rect x="440" y="50" width="110" height="10" fill="#5C6049" fill-opacity="0.39"/>
<rect x="450" y="60" width="90" height="10" fill="#5C6049" fill-opacity="0.39"/>
<rect x="450" y="40" width="50" height="10" fill="#5C6049" fill-opacity="0.39"/>
<rect x="500" y="30" width="10" height="10" fill="#5C6049" fill-opacity="0.39"/>
<rect x="510" y="40" width="10" height="10" fill="#5C6049" fill-opacity="0.39"/>
<rect x="520" y="30" width="10" height="10" fill="#5C6049" fill-opacity="0.39"/>
<rect x="480" y="70" width="60" height="10" fill="#5C6049" fill-opacity="0.39"/>
<rect x="710" y="50" width="40" height="10" fill="#102224"/>
<rect x="690" y="100" width="60" height="10" fill="#102224"/>
<rect x="650" y="90" width="100" height="10" fill="#102224"/>
<rect x="740" y="40" width="10" height="10" fill="#102224"/>
<rect x="700" y="40" width="10" height="10" fill="#102224"/>
<rect x="690" y="50" width="10" height="10" fill="#102224"/>
<rect x="670" y="50" width="10" height="10" fill="#102224"/>
<rect x="650" y="60" width="10" height="10" fill="#102224"/>
<rect x="660" y="100" width="10" height="10" fill="#102224"/>
<rect x="630" y="70" width="10" height="10" fill="#102224"/>
<rect x="610" y="70" width="10" height="10" fill="#102224"/>
<rect x="610" y="70" width="10" height="10" fill="#102224"/>
<rect x="610" y="60" width="10" height="10" fill="#102224"/>
<rect x="620" y="60" width="10" height="10" fill="#102224"/>
<rect x="600" y="80" width="10" height="10" fill="#102224"/>
<rect x="620" y="80" width="10" height="10" fill="#102224"/>
<rect x="630" y="90" width="10" height="10" fill="#102224"/>
<rect x="590" y="70" width="10" height="10" fill="#102224"/>
<rect x="621" y="100" width="10" height="10" fill="#102224"/>
<rect x="670" y="60" width="80" height="10" fill="#102224"/>
<rect x="670" y="60" width="80" height="10" fill="#102224"/>
<rect y="60" width="260" height="60" fill="url(#paint7_linear_18_170)" fill-opacity="0.4"/>
<rect y="50" width="100" height="10" fill="url(#paint8_linear_18_170)" fill-opacity="0.4"/>
<rect x="100" y="50" width="110" height="10" fill="url(#paint9_linear_18_170)" fill-opacity="0.4"/>
<rect x="210" y="50" width="40" height="10" fill="url(#paint10_linear_18_170)" fill-opacity="0.4"/>
<rect x="100" y="40" width="10" height="10" fill="url(#paint11_linear_18_170)" fill-opacity="0.4"/>
<rect x="120" y="40" width="10" height="10" fill="url(#paint12_linear_18_170)" fill-opacity="0.4"/>
<rect x="120" y="40" width="10" height="10" fill="url(#paint13_linear_18_170)" fill-opacity="0.4"/>
<rect x="110" y="40" width="10" height="10" fill="url(#paint14_linear_18_170)" fill-opacity="0.4"/>
<rect x="130" y="30" width="10" height="10" fill="url(#paint15_linear_18_170)" fill-opacity="0.4"/>
<rect x="220" y="50" width="10" height="10" fill="url(#paint16_linear_18_170)" fill-opacity="0.4"/>
<rect x="280" y="50" width="10" height="10" fill="url(#paint17_linear_18_170)" fill-opacity="0.4"/>
<rect x="250" y="40" width="10" height="10" fill="url(#paint18_linear_18_170)" fill-opacity="0.4"/>
<rect x="110" y="50" width="10" height="10" fill="url(#paint19_linear_18_170)" fill-opacity="0.4"/>
<rect x="40" y="70" width="10" height="10" fill="url(#paint20_linear_18_170)" fill-opacity="0.4"/>
<rect x="100" y="70" width="10" height="10" fill="url(#paint21_linear_18_170)" fill-opacity="0.4"/>
<rect x="130" y="50" width="10" height="10" fill="url(#paint22_linear_18_170)" fill-opacity="0.4"/>
<rect x="40" y="80" width="10" height="10" fill="url(#paint23_linear_18_170)" fill-opacity="0.4"/>
<rect x="30" y="90" width="10" height="10" fill="url(#paint24_linear_18_170)" fill-opacity="0.4"/>
<rect x="60" y="80" width="10" height="10" fill="url(#paint25_linear_18_170)" fill-opacity="0.4"/>
<rect x="80" y="50" width="10" height="10" fill="url(#paint26_linear_18_170)" fill-opacity="0.4"/>
<rect x="80" y="50" width="10" height="10" fill="url(#paint27_linear_18_170)" fill-opacity="0.4"/>
<rect x="30" y="80" width="10" height="10" fill="url(#paint28_linear_18_170)" fill-opacity="0.4"/>
<rect x="20" y="80" width="10" height="10" fill="url(#paint29_linear_18_170)" fill-opacity="0.4"/>
<rect x="80" y="40" width="10" height="10" fill="url(#paint30_linear_18_170)" fill-opacity="0.4"/>
<rect x="50" y="80" width="10" height="10" fill="url(#paint31_linear_18_170)" fill-opacity="0.4"/>
<rect x="80" y="70" width="10" height="10" fill="url(#paint32_linear_18_170)" fill-opacity="0.4"/>
<rect x="70" y="80" width="10" height="10" fill="url(#paint33_linear_18_170)" fill-opacity="0.4"/>
<rect x="60" y="50" width="10" height="10" fill="url(#paint34_linear_18_170)" fill-opacity="0.4"/>
<rect x="50" y="40" width="10" height="10" fill="url(#paint35_linear_18_170)" fill-opacity="0.4"/>
<rect x="30" y="70" width="10" height="10" fill="url(#paint36_linear_18_170)" fill-opacity="0.4"/>
<rect y="50" width="10" height="10" fill="url(#paint37_linear_18_170)" fill-opacity="0.4"/>
<rect x="40" y="40" width="10" height="10" fill="url(#paint38_linear_18_170)" fill-opacity="0.4"/>
<rect x="60" y="40" width="10" height="10" fill="url(#paint39_linear_18_170)" fill-opacity="0.4"/>
<rect x="20" y="40" width="10" height="10" fill="url(#paint40_linear_18_170)" fill-opacity="0.4"/>
<rect x="30" y="30" width="10" height="10" fill="url(#paint41_linear_18_170)" fill-opacity="0.4"/>
<rect x="20" y="30" width="10" height="10" fill="url(#paint42_linear_18_170)" fill-opacity="0.4"/>
<rect x="40" y="30" width="10" height="10" fill="url(#paint43_linear_18_170)" fill-opacity="0.4"/>
<rect x="70" y="30" width="10" height="10" fill="url(#paint44_linear_18_170)" fill-opacity="0.4"/>
<rect y="40" width="10" height="10" fill="url(#paint45_linear_18_170)" fill-opacity="0.4"/>
<rect x="10" y="40" width="10" height="10" fill="url(#paint46_linear_18_170)" fill-opacity="0.4"/>
<rect x="160" y="50" width="10" height="10" fill="url(#paint47_linear_18_170)" fill-opacity="0.4"/>
<rect x="80" y="90" width="10" height="10" fill="url(#paint48_linear_18_170)" fill-opacity="0.4"/>
<rect x="170" y="40" width="10" height="10" fill="url(#paint49_linear_18_170)" fill-opacity="0.4"/>
<rect x="190" y="40" width="10" height="10" fill="url(#paint50_linear_18_170)" fill-opacity="0.4"/>
<rect x="290" y="60" width="10" height="10" fill="url(#paint51_linear_18_170)" fill-opacity="0.4"/>
<rect x="300" y="60" width="10" height="10" fill="url(#paint52_linear_18_170)" fill-opacity="0.4"/>
<rect x="310" y="50" width="10" height="10" fill="url(#paint53_linear_18_170)" fill-opacity="0.4"/>
<rect x="160" y="30" width="10" height="10" fill="url(#paint54_linear_18_170)" fill-opacity="0.4"/>
<rect x="150" y="40" width="10" height="10" fill="url(#paint55_linear_18_170)" fill-opacity="0.4"/>
<rect x="180" y="50" width="10" height="10" fill="url(#paint56_linear_18_170)" fill-opacity="0.4"/>
<rect x="90" y="80" width="10" height="10" fill="url(#paint57_linear_18_170)" fill-opacity="0.4"/>
<rect x="260" y="70" width="70" height="50" fill="url(#paint58_linear_18_170)" fill-opacity="0.4"/>
<rect x="270" y="60" width="10" height="10" fill="url(#paint59_linear_18_170)" fill-opacity="0.4"/>
<rect x="330" y="80" width="50" height="40" fill="url(#paint60_linear_18_170)" fill-opacity="0.4"/>
<rect x="400" y="100" width="10" height="10" fill="url(#paint61_linear_18_170)" fill-opacity="0.4"/>
<rect x="410" y="110" width="10" height="10" fill="url(#paint62_linear_18_170)" fill-opacity="0.4"/>
<rect x="430" y="110" width="10" height="10" fill="url(#paint63_linear_18_170)" fill-opacity="0.4"/>
<rect x="420" y="100" width="10" height="10" fill="url(#paint64_linear_18_170)" fill-opacity="0.4"/>
<rect x="400" y="90" width="10" height="10" fill="url(#paint65_linear_18_170)" fill-opacity="0.4"/>
<rect x="380" y="100" width="20" height="20" fill="url(#paint66_linear_18_170)" fill-opacity="0.4"/>
<rect width="10" height="10" transform="matrix(-1 0 0 1 1170 60)" fill="url(#paint67_linear_18_170)" fill-opacity="0.4"/>
<rect width="10" height="10" transform="matrix(-1 0 0 1 1160 50)" fill="url(#paint68_linear_18_170)" fill-opacity="0.4"/>
<rect width="10" height="10" transform="matrix(-1 0 0 1 1160 70)" fill="url(#paint69_linear_18_170)" fill-opacity="0.4"/>
<rect width="10" height="10" transform="matrix(-1 0 0 1 1150 60)" fill="url(#paint70_linear_18_170)" fill-opacity="0.4"/>
<rect width="10" height="10" transform="matrix(-1 0 0 1 1140 70)" fill="url(#paint71_linear_18_170)" fill-opacity="0.4"/>
<rect width="10" height="10" transform="matrix(-1 0 0 1 1130 60)" fill="url(#paint72_linear_18_170)" fill-opacity="0.4"/>
<rect width="10" height="10" transform="matrix(-1 0 0 1 1120 50)" fill="url(#paint73_linear_18_170)" fill-opacity="0.4"/>
<rect width="110" height="20" transform="matrix(-1 0 0 1 860 70)" fill="#102224"/>
<rect width="110" height="10" transform="matrix(-1 0 0 1 1060 50)" fill="#5C6049" fill-opacity="0.39"/>
<rect width="90" height="10" transform="matrix(-1 0 0 1 1050 60)" fill="#5C6049" fill-opacity="0.39"/>
<rect width="50" height="10" transform="matrix(-1 0 0 1 1050 40)" fill="#5C6049" fill-opacity="0.39"/>
<rect width="10" height="10" transform="matrix(-1 0 0 1 1000 30)" fill="#5C6049" fill-opacity="0.39"/>
<rect width="10" height="10" transform="matrix(-1 0 0 1 990 40)" fill="#5C6049" fill-opacity="0.39"/>
<rect width="10" height="10" transform="matrix(-1 0 0 1 980 30)" fill="#5C6049" fill-opacity="0.39"/>
<rect width="60" height="10" transform="matrix(-1 0 0 1 1020 70)" fill="#5C6049" fill-opacity="0.39"/>
<rect width="40" height="10" transform="matrix(-1 0 0 1 790 50)" fill="#102224"/>
<rect width="30" height="10" transform="matrix(-1 0 0 1 790 40)" fill="#102224"/>
<rect width="60" height="10" transform="matrix(-1 0 0 1 810 100)" fill="#102224"/>
<rect width="100" height="10" transform="matrix(-1 0 0 1 850 90)" fill="#102224"/>
<rect width="10" height="10" transform="matrix(-1 0 0 1 760 40)" fill="#102224"/>
<rect width="10" height="10" transform="matrix(-1 0 0 1 800 40)" fill="#102224"/>
<rect width="10" height="10" transform="matrix(-1 0 0 1 810 50)" fill="#102224"/>
<rect width="10" height="10" transform="matrix(-1 0 0 1 830 50)" fill="#102224"/>
<rect width="10" height="10" transform="matrix(-1 0 0 1 850 60)" fill="#102224"/>
<rect width="10" height="10" transform="matrix(-1 0 0 1 840 100)" fill="#102224"/>
<rect width="10" height="10" transform="matrix(-1 0 0 1 870 70)" fill="#102224"/>
<rect width="10" height="10" transform="matrix(-1 0 0 1 890 70)" fill="#102224"/>
<rect width="10" height="10" transform="matrix(-1 0 0 1 890 70)" fill="#102224"/>
<rect width="10" height="10" transform="matrix(-1 0 0 1 890 60)" fill="#102224"/>
<rect width="10" height="10" transform="matrix(-1 0 0 1 880 60)" fill="#102224"/>
<rect width="10" height="10" transform="matrix(-1 0 0 1 900 80)" fill="#102224"/>
<rect width="10" height="10" transform="matrix(-1 0 0 1 880 80)" fill="#102224"/>
<rect width="10" height="10" transform="matrix(-1 0 0 1 870 90)" fill="#102224"/>
<rect width="10" height="10" transform="matrix(-1 0 0 1 910 70)" fill="#102224"/>
<rect width="10" height="10" transform="matrix(-1 0 0 1 879 100)" fill="#102224"/>
<rect width="80" height="10" transform="matrix(-1 0 0 1 830 60)" fill="#102224"/>
<rect width="80" height="10" transform="matrix(-1 0 0 1 830 60)" fill="#102224"/>
<rect width="10" height="10" transform="matrix(-1 0 0 1 1210 100)" fill="url(#paint74_linear_18_170)" fill-opacity="0.4"/>
<rect width="10" height="10" transform="matrix(-1 0 0 1 1200 110)" fill="url(#paint75_linear_18_170)" fill-opacity="0.4"/>
<rect width="10" height="10" transform="matrix(-1 0 0 1 1190 110)" fill="url(#paint76_linear_18_170)" fill-opacity="0.4"/>
<rect width="10" height="10" transform="matrix(-1 0 0 1 1180 100)" fill="url(#paint77_linear_18_170)" fill-opacity="0.4"/>
<rect width="10" height="10" transform="matrix(-1 0 0 1 1220 110)" fill="url(#paint78_linear_18_170)" fill-opacity="0.4"/>
<rect width="50" height="40" transform="matrix(-1 0 0 1 1170 80)" fill="url(#paint79_linear_18_170)" fill-opacity="0.4"/>
<rect width="10" height="10" transform="matrix(-1 0 0 1 1100 100)" fill="url(#paint80_linear_18_170)" fill-opacity="0.4"/>
<rect width="10" height="10" transform="matrix(-1 0 0 1 1090 110)" fill="url(#paint81_linear_18_170)" fill-opacity="0.4"/>
<rect width="10" height="10" transform="matrix(-1 0 0 1 1070 110)" fill="url(#paint82_linear_18_170)" fill-opacity="0.4"/>
<rect width="10" height="10" transform="matrix(-1 0 0 1 1080 100)" fill="url(#paint83_linear_18_170)" fill-opacity="0.4"/>
<rect width="10" height="10" transform="matrix(-1 0 0 1 1100 90)" fill="url(#paint84_linear_18_170)" fill-opacity="0.4"/>
<rect width="20" height="20" transform="matrix(-1 0 0 1 1120 100)" fill="url(#paint85_linear_18_170)" fill-opacity="0.4"/>
<defs>
<linearGradient id="paint0_linear_18_170" x1="335" y1="70" x2="335" y2="60" gradientUnits="userSpaceOnUse">
<stop offset="0.005" stop-color="#6E6D41" stop-opacity="0.5"/>
<stop offset="0.9999" stop-color="#6E6D41" stop-opacity="0.2"/>
</linearGradient>
<linearGradient id="paint1_linear_18_170" x1="345" y1="60" x2="345" y2="50" gradientUnits="userSpaceOnUse">
<stop offset="0.005" stop-color="#6E6D41" stop-opacity="0.5"/>
<stop offset="0.9999" stop-color="#6E6D41" stop-opacity="0.2"/>
</linearGradient>
<linearGradient id="paint2_linear_18_170" x1="345" y1="80" x2="345" y2="70" gradientUnits="userSpaceOnUse">
<stop offset="0.005" stop-color="#6E6D41" stop-opacity="0.5"/>
<stop offset="0.9999" stop-color="#6E6D41" stop-opacity="0.2"/>
</linearGradient>
<linearGradient id="paint3_linear_18_170" x1="355" y1="70" x2="355" y2="60" gradientUnits="userSpaceOnUse">
<stop offset="0.005" stop-color="#6E6D41" stop-opacity="0.5"/>
<stop offset="0.9999" stop-color="#6E6D41" stop-opacity="0.2"/>
</linearGradient>
<linearGradient id="paint4_linear_18_170" x1="365" y1="80" x2="365" y2="70" gradientUnits="userSpaceOnUse">
<stop offset="0.005" stop-color="#6E6D41" stop-opacity="0.5"/>
<stop offset="0.9999" stop-color="#6E6D41" stop-opacity="0.2"/>
</linearGradient>
<linearGradient id="paint5_linear_18_170" x1="375" y1="70" x2="375" y2="60" gradientUnits="userSpaceOnUse">
<stop offset="0.005" stop-color="#6E6D41" stop-opacity="0.5"/>
<stop offset="0.9999" stop-color="#6E6D41" stop-opacity="0.2"/>
</linearGradient>
<linearGradient id="paint6_linear_18_170" x1="385" y1="60" x2="385" y2="50" gradientUnits="userSpaceOnUse">
<stop offset="0.005" stop-color="#6E6D41" stop-opacity="0.5"/>
<stop offset="0.9999" stop-color="#6E6D41" stop-opacity="0.2"/>
</linearGradient>
<linearGradient id="paint7_linear_18_170" x1="0" y1="90" x2="260" y2="90" gradientUnits="userSpaceOnUse">
<stop offset="0.005" stop-color="#D4D27D"/>
<stop offset="0.235" stop-color="#A3A260"/>
<stop offset="0.9999" stop-color="#6E6D41"/>
</linearGradient>
<linearGradient id="paint8_linear_18_170" x1="50" y1="60" x2="50" y2="50" gradientUnits="userSpaceOnUse">
<stop offset="0.005" stop-color="#D4D27D" stop-opacity="0.9"/>
<stop offset="0.9999" stop-color="#D4D27D" stop-opacity="0.5"/>
</linearGradient>
<linearGradient id="paint9_linear_18_170" x1="155" y1="60" x2="155" y2="50" gradientUnits="userSpaceOnUse">
<stop offset="0.005" stop-color="#A3A260" stop-opacity="0.9"/>
<stop offset="0.9999" stop-color="#A3A260" stop-opacity="0.5"/>
</linearGradient>
<linearGradient id="paint10_linear_18_170" x1="230" y1="60" x2="230" y2="50" gradientUnits="userSpaceOnUse">
<stop offset="0.005" stop-color="#6E6D41" stop-opacity="0.9"/>
<stop offset="0.9999" stop-color="#6E6D41" stop-opacity="0.5"/>
</linearGradient>
<linearGradient id="paint11_linear_18_170" x1="105" y1="50" x2="105" y2="40" gradientUnits="userSpaceOnUse">
<stop offset="0.005" stop-color="#A3A260" stop-opacity="0.5"/>
<stop offset="0.9999" stop-color="#A3A260" stop-opacity="0.2"/>
</linearGradient>
<linearGradient id="paint12_linear_18_170" x1="125" y1="50" x2="125" y2="40" gradientUnits="userSpaceOnUse">
<stop offset="0.005" stop-color="#A3A260" stop-opacity="0.5"/>
<stop offset="0.9999" stop-color="#A3A260" stop-opacity="0.2"/>
</linearGradient>
<linearGradient id="paint13_linear_18_170" x1="125" y1="50" x2="125" y2="40" gradientUnits="userSpaceOnUse">
<stop offset="0.005" stop-color="#A3A260" stop-opacity="0.5"/>
<stop offset="0.9999" stop-color="#A3A260" stop-opacity="0.2"/>
</linearGradient>
<linearGradient id="paint14_linear_18_170" x1="115" y1="50" x2="115" y2="40" gradientUnits="userSpaceOnUse">
<stop offset="0.005" stop-color="#A3A260" stop-opacity="0.5"/>
<stop offset="0.9999" stop-color="#A3A260" stop-opacity="0.2"/>
</linearGradient>
<linearGradient id="paint15_linear_18_170" x1="135" y1="40" x2="135" y2="30" gradientUnits="userSpaceOnUse">
<stop offset="0.005" stop-color="#A3A260" stop-opacity="0.5"/>
<stop offset="0.9999" stop-color="#A3A260" stop-opacity="0.2"/>
</linearGradient>
<linearGradient id="paint16_linear_18_170" x1="225" y1="60" x2="225" y2="50" gradientUnits="userSpaceOnUse">
<stop offset="0.005" stop-color="#A3A260" stop-opacity="0.9"/>
<stop offset="0.9999" stop-color="#A3A260" stop-opacity="0.5"/>
</linearGradient>
<linearGradient id="paint17_linear_18_170" x1="285" y1="60" x2="285" y2="50" gradientUnits="userSpaceOnUse">
<stop offset="0.005" stop-color="#A3A260" stop-opacity="0.9"/>
<stop offset="0.9999" stop-color="#A3A260" stop-opacity="0.5"/>
</linearGradient>
<linearGradient id="paint18_linear_18_170" x1="255" y1="50" x2="255" y2="40" gradientUnits="userSpaceOnUse">
<stop offset="0.005" stop-color="#A3A260" stop-opacity="0.9"/>
<stop offset="0.9999" stop-color="#A3A260" stop-opacity="0.5"/>
</linearGradient>
<linearGradient id="paint19_linear_18_170" x1="115" y1="60" x2="115" y2="50" gradientUnits="userSpaceOnUse">
<stop offset="0.005" stop-color="#D4D27D" stop-opacity="0.9"/>
<stop offset="0.9999" stop-color="#D4D27D" stop-opacity="0.5"/>
</linearGradient>
<linearGradient id="paint20_linear_18_170" x1="45" y1="80" x2="45" y2="70" gradientUnits="userSpaceOnUse">
<stop offset="0.005" stop-color="#D4D27D" stop-opacity="0.9"/>
<stop offset="0.9999" stop-color="#D4D27D" stop-opacity="0.5"/>
</linearGradient>
<linearGradient id="paint21_linear_18_170" x1="105" y1="80" x2="105" y2="70" gradientUnits="userSpaceOnUse">
<stop offset="0.005" stop-color="#D4D27D" stop-opacity="0.9"/>
<stop offset="0.9999" stop-color="#D4D27D" stop-opacity="0.5"/>
</linearGradient>
<linearGradient id="paint22_linear_18_170" x1="135" y1="60" x2="135" y2="50" gradientUnits="userSpaceOnUse">
<stop offset="0.005" stop-color="#D4D27D" stop-opacity="0.9"/>
<stop offset="0.9999" stop-color="#D4D27D" stop-opacity="0.5"/>
</linearGradient>
<linearGradient id="paint23_linear_18_170" x1="45" y1="90" x2="45" y2="80" gradientUnits="userSpaceOnUse">
<stop offset="0.005" stop-color="#D4D27D" stop-opacity="0.9"/>
<stop offset="0.9999" stop-color="#D4D27D" stop-opacity="0.5"/>
</linearGradient>
<linearGradient id="paint24_linear_18_170" x1="35" y1="100" x2="35" y2="90" gradientUnits="userSpaceOnUse">
<stop offset="0.005" stop-color="#D4D27D" stop-opacity="0.9"/>
<stop offset="0.9999" stop-color="#D4D27D" stop-opacity="0.5"/>
</linearGradient>
<linearGradient id="paint25_linear_18_170" x1="65" y1="90" x2="65" y2="80" gradientUnits="userSpaceOnUse">
<stop offset="0.005" stop-color="#D4D27D" stop-opacity="0.9"/>
<stop offset="0.9999" stop-color="#D4D27D" stop-opacity="0.5"/>
</linearGradient>
<linearGradient id="paint26_linear_18_170" x1="85" y1="60" x2="85" y2="50" gradientUnits="userSpaceOnUse">
<stop offset="0.005" stop-color="#A3A260" stop-opacity="0.9"/>
<stop offset="0.9999" stop-color="#A3A260" stop-opacity="0.5"/>
</linearGradient>
<linearGradient id="paint27_linear_18_170" x1="85" y1="60" x2="85" y2="50" gradientUnits="userSpaceOnUse">
<stop offset="0.005" stop-color="#A3A260" stop-opacity="0.9"/>
<stop offset="0.9999" stop-color="#A3A260" stop-opacity="0.5"/>
</linearGradient>
<linearGradient id="paint28_linear_18_170" x1="35" y1="90" x2="35" y2="80" gradientUnits="userSpaceOnUse">
<stop offset="0.005" stop-color="#A3A260" stop-opacity="0.9"/>
<stop offset="0.9999" stop-color="#A3A260" stop-opacity="0.5"/>
</linearGradient>
<linearGradient id="paint29_linear_18_170" x1="25" y1="90" x2="25" y2="80" gradientUnits="userSpaceOnUse">
<stop offset="0.005" stop-color="#A3A260" stop-opacity="0.9"/>
<stop offset="0.9999" stop-color="#A3A260" stop-opacity="0.5"/>
</linearGradient>
<linearGradient id="paint30_linear_18_170" x1="85" y1="50" x2="85" y2="40" gradientUnits="userSpaceOnUse">
<stop offset="0.005" stop-color="#A3A260" stop-opacity="0.9"/>
<stop offset="0.9999" stop-color="#A3A260" stop-opacity="0.5"/>
</linearGradient>
<linearGradient id="paint31_linear_18_170" x1="55" y1="90" x2="55" y2="80" gradientUnits="userSpaceOnUse">
<stop offset="0.005" stop-color="#A3A260" stop-opacity="0.9"/>
<stop offset="0.9999" stop-color="#A3A260" stop-opacity="0.5"/>
</linearGradient>
<linearGradient id="paint32_linear_18_170" x1="85" y1="80" x2="85" y2="70" gradientUnits="userSpaceOnUse">
<stop offset="0.005" stop-color="#A3A260" stop-opacity="0.9"/>
<stop offset="0.9999" stop-color="#A3A260" stop-opacity="0.5"/>
</linearGradient>
<linearGradient id="paint33_linear_18_170" x1="75" y1="90" x2="75" y2="80" gradientUnits="userSpaceOnUse">
<stop offset="0.005" stop-color="#A3A260" stop-opacity="0.9"/>
<stop offset="0.9999" stop-color="#A3A260" stop-opacity="0.5"/>
</linearGradient>
<linearGradient id="paint34_linear_18_170" x1="65" y1="60" x2="65" y2="50" gradientUnits="userSpaceOnUse">
<stop offset="0.005" stop-color="#A3A260" stop-opacity="0.9"/>
<stop offset="0.9999" stop-color="#A3A260" stop-opacity="0.5"/>
</linearGradient>
<linearGradient id="paint35_linear_18_170" x1="55" y1="50" x2="55" y2="40" gradientUnits="userSpaceOnUse">
<stop offset="0.005" stop-color="#A3A260" stop-opacity="0.9"/>
<stop offset="0.9999" stop-color="#A3A260" stop-opacity="0.5"/>
</linearGradient>
<linearGradient id="paint36_linear_18_170" x1="35" y1="80" x2="35" y2="70" gradientUnits="userSpaceOnUse">
<stop offset="0.005" stop-color="#A3A260" stop-opacity="0.9"/>
<stop offset="0.9999" stop-color="#A3A260" stop-opacity="0.5"/>
</linearGradient>
<linearGradient id="paint37_linear_18_170" x1="5" y1="60" x2="5" y2="50" gradientUnits="userSpaceOnUse">
<stop offset="0.005" stop-color="#A3A260" stop-opacity="0.9"/>
<stop offset="0.9999" stop-color="#A3A260" stop-opacity="0.5"/>
</linearGradient>
<linearGradient id="paint38_linear_18_170" x1="45" y1="50" x2="45" y2="40" gradientUnits="userSpaceOnUse">
<stop offset="0.005" stop-color="#A3A260" stop-opacity="0.5"/>
<stop offset="0.9999" stop-color="#A3A260" stop-opacity="0.3"/>
</linearGradient>
<linearGradient id="paint39_linear_18_170" x1="65" y1="50" x2="65" y2="40" gradientUnits="userSpaceOnUse">
<stop offset="0.005" stop-color="#A3A260" stop-opacity="0.5"/>
<stop offset="0.9999" stop-color="#A3A260" stop-opacity="0.3"/>
</linearGradient>
<linearGradient id="paint40_linear_18_170" x1="25" y1="50" x2="25" y2="40" gradientUnits="userSpaceOnUse">
<stop offset="0.005" stop-color="#A3A260" stop-opacity="0.5"/>
<stop offset="0.9999" stop-color="#A3A260" stop-opacity="0.3"/>
</linearGradient>
<linearGradient id="paint41_linear_18_170" x1="35" y1="40" x2="35" y2="30" gradientUnits="userSpaceOnUse">
<stop offset="0.005" stop-color="#A3A260" stop-opacity="0.3"/>
<stop offset="0.9999" stop-color="#A3A260" stop-opacity="0.2"/>
</linearGradient>
<linearGradient id="paint42_linear_18_170" x1="25" y1="40" x2="25" y2="30" gradientUnits="userSpaceOnUse">
<stop offset="0.005" stop-color="#A3A260" stop-opacity="0.3"/>
<stop offset="0.9999" stop-color="#A3A260" stop-opacity="0.2"/>
</linearGradient>
<linearGradient id="paint43_linear_18_170" x1="45" y1="40" x2="45" y2="30" gradientUnits="userSpaceOnUse">
<stop offset="0.005" stop-color="#A3A260" stop-opacity="0.3"/>
<stop offset="0.9999" stop-color="#A3A260" stop-opacity="0.2"/>
</linearGradient>
<linearGradient id="paint44_linear_18_170" x1="75" y1="40" x2="75" y2="30" gradientUnits="userSpaceOnUse">
<stop offset="0.005" stop-color="#A3A260" stop-opacity="0.3"/>
<stop offset="0.9999" stop-color="#A3A260" stop-opacity="0.2"/>
</linearGradient>
<linearGradient id="paint45_linear_18_170" x1="5" y1="50" x2="5" y2="40" gradientUnits="userSpaceOnUse">
<stop offset="0.005" stop-color="#A3A260" stop-opacity="0.5"/>
<stop offset="0.9999" stop-color="#A3A260" stop-opacity="0.3"/>
</linearGradient>
<linearGradient id="paint46_linear_18_170" x1="15" y1="50" x2="15" y2="40" gradientUnits="userSpaceOnUse">
<stop offset="0.005" stop-color="#A3A260" stop-opacity="0.5"/>
<stop offset="0.9999" stop-color="#A3A260" stop-opacity="0.3"/>
</linearGradient>
<linearGradient id="paint47_linear_18_170" x1="165" y1="60" x2="165" y2="50" gradientUnits="userSpaceOnUse">
<stop offset="0.005" stop-color="#6E6D41" stop-opacity="0.9"/>
<stop offset="0.9999" stop-color="#6E6D41" stop-opacity="0.5"/>
</linearGradient>
<linearGradient id="paint48_linear_18_170" x1="85" y1="100" x2="85" y2="90" gradientUnits="userSpaceOnUse">
<stop offset="0.005" stop-color="#6E6D41" stop-opacity="0.9"/>
<stop offset="0.9999" stop-color="#6E6D41" stop-opacity="0.5"/>
</linearGradient>
<linearGradient id="paint49_linear_18_170" x1="175" y1="50" x2="175" y2="40" gradientUnits="userSpaceOnUse">
<stop offset="0.005" stop-color="#6E6D41" stop-opacity="0.5"/>
<stop offset="0.9999" stop-color="#6E6D41" stop-opacity="0.2"/>
</linearGradient>
<linearGradient id="paint50_linear_18_170" x1="195" y1="50" x2="195" y2="40" gradientUnits="userSpaceOnUse">
<stop offset="0.005" stop-color="#6E6D41" stop-opacity="0.5"/>
<stop offset="0.9999" stop-color="#6E6D41" stop-opacity="0.2"/>
</linearGradient>
<linearGradient id="paint51_linear_18_170" x1="295" y1="70" x2="295" y2="60" gradientUnits="userSpaceOnUse">
<stop offset="0.005" stop-color="#6E6D41" stop-opacity="0.5"/>
<stop offset="0.9999" stop-color="#6E6D41" stop-opacity="0.2"/>
</linearGradient>
<linearGradient id="paint52_linear_18_170" x1="305" y1="70" x2="305" y2="60" gradientUnits="userSpaceOnUse">
<stop offset="0.005" stop-color="#6E6D41" stop-opacity="0.5"/>
<stop offset="0.9999" stop-color="#6E6D41" stop-opacity="0.2"/>
</linearGradient>
<linearGradient id="paint53_linear_18_170" x1="315" y1="60" x2="315" y2="50" gradientUnits="userSpaceOnUse">
<stop offset="0.005" stop-color="#6E6D41" stop-opacity="0.5"/>
<stop offset="0.9999" stop-color="#6E6D41" stop-opacity="0.2"/>
</linearGradient>
<linearGradient id="paint54_linear_18_170" x1="165" y1="40" x2="165" y2="30" gradientUnits="userSpaceOnUse">
<stop offset="0.005" stop-color="#6E6D41" stop-opacity="0.2"/>
<stop offset="0.9999" stop-color="#6E6D41" stop-opacity="0.3"/>
</linearGradient>
<linearGradient id="paint55_linear_18_170" x1="155" y1="50" x2="155" y2="40" gradientUnits="userSpaceOnUse">
<stop offset="0.005" stop-color="#6E6D41" stop-opacity="0.9"/>
<stop offset="0.9999" stop-color="#6E6D41" stop-opacity="0.5"/>
</linearGradient>
<linearGradient id="paint56_linear_18_170" x1="185" y1="60" x2="185" y2="50" gradientUnits="userSpaceOnUse">
<stop offset="0.005" stop-color="#6E6D41" stop-opacity="0.9"/>
<stop offset="0.9999" stop-color="#6E6D41" stop-opacity="0.5"/>
</linearGradient>
<linearGradient id="paint57_linear_18_170" x1="95" y1="90" x2="95" y2="80" gradientUnits="userSpaceOnUse">
<stop offset="0.005" stop-color="#6E6D41" stop-opacity="0.9"/>
<stop offset="0.9999" stop-color="#6E6D41" stop-opacity="0.5"/>
</linearGradient>
<linearGradient id="paint58_linear_18_170" x1="260" y1="95" x2="330" y2="95" gradientUnits="userSpaceOnUse">
<stop stop-color="#6E6D41"/>
<stop offset="1" stop-color="#6E6D41" stop-opacity="0.5"/>
</linearGradient>
<linearGradient id="paint59_linear_18_170" x1="270" y1="65" x2="280" y2="65" gradientUnits="userSpaceOnUse">
<stop stop-color="#6E6D41"/>
<stop offset="1" stop-color="#6E6D41" stop-opacity="0.5"/>
</linearGradient>
<linearGradient id="paint60_linear_18_170" x1="330" y1="100" x2="380" y2="100" gradientUnits="userSpaceOnUse">
<stop stop-color="#6E6D41" stop-opacity="0.5"/>
<stop offset="1" stop-color="#6E6D41" stop-opacity="0.3"/>
</linearGradient>
<linearGradient id="paint61_linear_18_170" x1="400" y1="105" x2="410" y2="105" gradientUnits="userSpaceOnUse">
<stop stop-color="#6E6D41" stop-opacity="0.3"/>
<stop offset="1" stop-color="#6E6D41" stop-opacity="0.2"/>
</linearGradient>
<linearGradient id="paint62_linear_18_170" x1="410" y1="115" x2="420" y2="115" gradientUnits="userSpaceOnUse">
<stop stop-color="#6E6D41" stop-opacity="0.3"/>
<stop offset="1" stop-color="#6E6D41" stop-opacity="0.2"/>
</linearGradient>
<linearGradient id="paint63_linear_18_170" x1="430" y1="115" x2="440" y2="115" gradientUnits="userSpaceOnUse">
<stop stop-color="#6E6D41" stop-opacity="0.3"/>
<stop offset="1" stop-color="#6E6D41" stop-opacity="0.2"/>
</linearGradient>
<linearGradient id="paint64_linear_18_170" x1="420" y1="105" x2="430" y2="105" gradientUnits="userSpaceOnUse">
<stop stop-color="#6E6D41" stop-opacity="0.3"/>
<stop offset="1" stop-color="#6E6D41" stop-opacity="0.2"/>
</linearGradient>
<linearGradient id="paint65_linear_18_170" x1="400" y1="95" x2="410" y2="95" gradientUnits="userSpaceOnUse">
<stop stop-color="#6E6D41" stop-opacity="0.3"/>
<stop offset="1" stop-color="#6E6D41" stop-opacity="0.2"/>
</linearGradient>
<linearGradient id="paint66_linear_18_170" x1="380" y1="110" x2="400" y2="110" gradientUnits="userSpaceOnUse">
<stop stop-color="#6E6D41" stop-opacity="0.3"/>
<stop offset="1" stop-color="#6E6D41" stop-opacity="0.2"/>
</linearGradient>
<linearGradient id="paint67_linear_18_170" x1="5" y1="10" x2="5" y2="0" gradientUnits="userSpaceOnUse">
<stop offset="0.005" stop-color="#6E6D41" stop-opacity="0.5"/>
<stop offset="0.9999" stop-color="#6E6D41" stop-opacity="0.2"/>
</linearGradient>
<linearGradient id="paint68_linear_18_170" x1="5" y1="10" x2="5" y2="0" gradientUnits="userSpaceOnUse">
<stop offset="0.005" stop-color="#6E6D41" stop-opacity="0.5"/>
<stop offset="0.9999" stop-color="#6E6D41" stop-opacity="0.2"/>
</linearGradient>
<linearGradient id="paint69_linear_18_170" x1="5" y1="10" x2="5" y2="0" gradientUnits="userSpaceOnUse">
<stop offset="0.005" stop-color="#6E6D41" stop-opacity="0.5"/>
<stop offset="0.9999" stop-color="#6E6D41" stop-opacity="0.2"/>
</linearGradient>
<linearGradient id="paint70_linear_18_170" x1="5" y1="10" x2="5" y2="0" gradientUnits="userSpaceOnUse">
<stop offset="0.005" stop-color="#6E6D41" stop-opacity="0.5"/>
<stop offset="0.9999" stop-color="#6E6D41" stop-opacity="0.2"/>
</linearGradient>
<linearGradient id="paint71_linear_18_170" x1="5" y1="10" x2="5" y2="0" gradientUnits="userSpaceOnUse">
<stop offset="0.005" stop-color="#6E6D41" stop-opacity="0.5"/>
<stop offset="0.9999" stop-color="#6E6D41" stop-opacity="0.2"/>
</linearGradient>
<linearGradient id="paint72_linear_18_170" x1="5" y1="10" x2="5" y2="0" gradientUnits="userSpaceOnUse">
<stop offset="0.005" stop-color="#6E6D41" stop-opacity="0.5"/>
<stop offset="0.9999" stop-color="#6E6D41" stop-opacity="0.2"/>
</linearGradient>
<linearGradient id="paint73_linear_18_170" x1="5" y1="10" x2="5" y2="0" gradientUnits="userSpaceOnUse">
<stop offset="0.005" stop-color="#6E6D41" stop-opacity="0.5"/>
<stop offset="0.9999" stop-color="#6E6D41" stop-opacity="0.2"/>
</linearGradient>
<linearGradient id="paint74_linear_18_170" x1="5" y1="10" x2="5" y2="0" gradientUnits="userSpaceOnUse">
<stop offset="0.005" stop-color="#A3A260" stop-opacity="0.9"/>
<stop offset="0.9999" stop-color="#A3A260" stop-opacity="0.5"/>
</linearGradient>
<linearGradient id="paint75_linear_18_170" x1="5" y1="10" x2="5" y2="0" gradientUnits="userSpaceOnUse">
<stop offset="0.005" stop-color="#6E6D41" stop-opacity="0.5"/>
<stop offset="0.9999" stop-color="#6E6D41" stop-opacity="0.2"/>
</linearGradient>
<linearGradient id="paint76_linear_18_170" x1="5" y1="10" x2="5" y2="0" gradientUnits="userSpaceOnUse">
<stop offset="0.005" stop-color="#6E6D41" stop-opacity="0.5"/>
<stop offset="0.9999" stop-color="#6E6D41" stop-opacity="0.2"/>
</linearGradient>
<linearGradient id="paint77_linear_18_170" x1="5" y1="10" x2="5" y2="0" gradientUnits="userSpaceOnUse">
<stop offset="0.005" stop-color="#6E6D41" stop-opacity="0.5"/>
<stop offset="0.9999" stop-color="#6E6D41" stop-opacity="0.2"/>
</linearGradient>
<linearGradient id="paint78_linear_18_170" x1="0" y1="5" x2="10" y2="5" gradientUnits="userSpaceOnUse">
<stop stop-color="#6E6D41"/>
<stop offset="1" stop-color="#6E6D41" stop-opacity="0.5"/>
</linearGradient>
<linearGradient id="paint79_linear_18_170" x1="0" y1="20" x2="50" y2="20" gradientUnits="userSpaceOnUse">
<stop stop-color="#6E6D41" stop-opacity="0.5"/>
<stop offset="1" stop-color="#6E6D41" stop-opacity="0.3"/>
</linearGradient>
<linearGradient id="paint80_linear_18_170" x1="0" y1="5" x2="10" y2="5" gradientUnits="userSpaceOnUse">
<stop stop-color="#6E6D41" stop-opacity="0.3"/>
<stop offset="1" stop-color="#6E6D41" stop-opacity="0.2"/>
</linearGradient>
<linearGradient id="paint81_linear_18_170" x1="0" y1="5" x2="10" y2="5" gradientUnits="userSpaceOnUse">
<stop stop-color="#6E6D41" stop-opacity="0.3"/>
<stop offset="1" stop-color="#6E6D41" stop-opacity="0.2"/>
</linearGradient>
<linearGradient id="paint82_linear_18_170" x1="0" y1="5" x2="10" y2="5" gradientUnits="userSpaceOnUse">
<stop stop-color="#6E6D41" stop-opacity="0.3"/>
<stop offset="1" stop-color="#6E6D41" stop-opacity="0.2"/>
</linearGradient>
<linearGradient id="paint83_linear_18_170" x1="0" y1="5" x2="10" y2="5" gradientUnits="userSpaceOnUse">
<stop stop-color="#6E6D41" stop-opacity="0.3"/>
<stop offset="1" stop-color="#6E6D41" stop-opacity="0.2"/>
</linearGradient>
<linearGradient id="paint84_linear_18_170" x1="0" y1="5" x2="10" y2="5" gradientUnits="userSpaceOnUse">
<stop stop-color="#6E6D41" stop-opacity="0.3"/>
<stop offset="1" stop-color="#6E6D41" stop-opacity="0.2"/>
</linearGradient>
<linearGradient id="paint85_linear_18_170" x1="0" y1="10" x2="20" y2="10" gradientUnits="userSpaceOnUse">
<stop stop-color="#6E6D41" stop-opacity="0.3"/>
<stop offset="1" stop-color="#6E6D41" stop-opacity="0.2"/>
</linearGradient>
</defs>
</svg>
